# xmcd
#
# Track frame offsets:
#	150
#	18050
#	34092
#	46780
#	62007
#	70647
#	80442
#	103487
#	112997
#	127790
#	136810
#	150072
#	161765
#	170720
#	188650
#
# Disc length: 2737
#
# Revision: 2
# Processed by: cddbd v1.5.1PL0 Copyright (c) Steve Scherf et al.
# Submitted via: DiscPlay 4.0.4
# Normalized: r1:DSETVAR1
#
DISCID=b00aaf0f
DTITLE=Various Artist - I'll Be Home For Christmas  (A Country Christmas Vol 1)
DYEAR=1900
DGENRE=
TTITLE0=Glen Campbell - The Little Drummer Boy
TTITLE1=Billy Walker - White Christmas
TTITLE2=Kim Carnes - What Child Is This
TTITLE3=Brenda Lee - O Come. All Ye Faithful
TTITLE4=Dickey Lee - Go Tell It On The Mountain
TTITLE5=Willie Nelson - We Wish You A Mery Christmas
TTITLE6=Lee Greenwood - The Twelve Days Of Christmas
TTITLE7=Boxcar Willie - Up On The Housetop
TTITLE8=Louise Mandrell - All I Want For Christmas (Dear Is Your)
TTITLE9=Jack Green - I'll Be Home for Christmas
TTITLE10=Jerry Butler - O Holy Night
TTITLE11=Merle Haggard - If We Make It Through December
TTITLE12=Donna Fargo - Rockin' Around The Christmas Tree
TTITLE13=The Lettermen - We Three Kings
TTITLE14=Willie Nelson - Pretty Paper
EXTD=
EXTT0=
EXTT1=
EXTT2=
EXTT3=
EXTT4=
EXTT5=
EXTT6=
EXTT7=
EXTT8=
EXTT9=
EXTT10=
EXTT11=
EXTT12=
EXTT13=
EXTT14=
PLAYORDER=
